<?xml version="1.0" encoding="utf-8"?>
<svg version="1.1" id="Layer_1" xmlns="http://www.w3.org/2000/svg" xmlns:xlink="http://www.w3.org/1999/xlink" x="0px" y="0px"
	 viewBox="895.376 -64.624 1672.15 1672.15" enable-background="new 895.376 -64.624 1672.15 1672.15" xml:space="preserve">
<g>
	<g>
		<circle cx="1444.133" cy="611.921" r="66.818"/>
	</g>
	<g>
		<circle cx="2010.179" cy="611.921" r="66.818"/>
	</g>
	<g>
		<path d="M1731.451,1571.451c-107.984,0-212.756-21.157-311.407-62.883c-95.268-40.295-180.819-97.973-254.279-171.432
			c-73.459-73.459-131.137-159.01-171.432-254.278c-41.725-98.65-62.882-203.423-62.882-311.407s21.157-212.756,62.883-311.407
			c40.295-95.268,97.973-180.819,171.432-254.279c73.46-73.459,159.011-131.137,254.279-171.432
			c98.65-41.725,203.422-62.882,311.406-62.882s212.757,21.157,311.407,62.883c95.268,40.295,180.819,97.973,254.278,171.432
			c73.459,73.46,131.137,159.011,171.432,254.279c41.726,98.65,62.883,203.422,62.883,311.406s-21.157,212.757-62.883,311.407
			c-40.295,95.268-97.973,180.819-171.432,254.278s-159.01,131.137-254.278,171.432
			C1944.208,1550.294,1839.435,1571.451,1731.451,1571.451z M1731.451,43.042c-401.646,0-728.409,326.763-728.409,728.409
			s326.763,728.409,728.409,728.409s728.409-326.763,728.409-728.409S2133.097,43.042,1731.451,43.042z"/>
	</g>
	<g>
		<path d="M1407.101,980.853c179.134-179.134,469.566-179.134,648.7,0c0,29.04,0,58.079,0,87.119
			c-179.134-179.133-469.566-179.133-648.7,0C1407.101,1038.932,1407.101,1009.893,1407.101,980.853z"/>
	</g>
	<g>
		<path d="M1320.661,415.096c82.315,29.471,164.63,58.942,246.945,88.414c0,24,0,48,0,72
			c-82.315-29.471-164.63-58.942-246.945-88.414C1320.661,463.096,1320.661,439.096,1320.661,415.096z"/>
	</g>
	<g>
		<path d="M1886.706,503.51c82.315-29.471,164.63-58.942,246.945-88.414c0,24,0,48,0,72
			c-82.315,29.471-164.63,58.942-246.945,88.414C1886.706,551.51,1886.706,527.51,1886.706,503.51z"/>
	</g>
</g>
</svg>
